<svg width="25" height="24" viewBox="0 0 25 24" fill="none" xmlns="http://www.w3.org/2000/svg">
<path d="M17.1963 10H19.1963C21.1963 10 22.1963 9 22.1963 7V5C22.1963 3 21.1963 2 19.1963 2H17.1963C15.1963 2 14.1963 3 14.1963 5V7C14.1963 9 15.1963 10 17.1963 10Z" stroke="#909090" stroke-width="1.5" stroke-miterlimit="10" stroke-linecap="round" stroke-linejoin="round"/>
<path d="M5.19629 22H7.19629C9.19629 22 10.1963 21 10.1963 19V17C10.1963 15 9.19629 14 7.19629 14H5.19629C3.19629 14 2.19629 15 2.19629 17V19C2.19629 21 3.19629 22 5.19629 22Z" stroke="#909090" stroke-width="1.5" stroke-miterlimit="10" stroke-linecap="round" stroke-linejoin="round"/>
<path d="M6.19629 10C8.40543 10 10.1963 8.20914 10.1963 6C10.1963 3.79086 8.40543 2 6.19629 2C3.98715 2 2.19629 3.79086 2.19629 6C2.19629 8.20914 3.98715 10 6.19629 10Z" stroke="#909090" stroke-width="1.5" stroke-miterlimit="10" stroke-linecap="round" stroke-linejoin="round"/>
<path d="M18.1963 22C20.4054 22 22.1963 20.2091 22.1963 18C22.1963 15.7909 20.4054 14 18.1963 14C15.9872 14 14.1963 15.7909 14.1963 18C14.1963 20.2091 15.9872 22 18.1963 22Z" stroke="#909090" stroke-width="1.5" stroke-miterlimit="10" stroke-linecap="round" stroke-linejoin="round"/>
</svg>
